<svg width="64" height="64" viewBox="0 0 64 64" fill="none" xmlns="http://www.w3.org/2000/svg">
<path opacity="0.2" d="M4 44.5V57.5C4 58.8807 5.11929 60 6.5 60H57.5C58.8807 60 60 58.8807 60 57.5V44.5C60 43.1193 58.8807 42 57.5 42H6.5C5.11929 42 4 43.1193 4 44.5Z" fill="black"/>
<path d="M4 44.5V57.5C4 58.8807 5.11929 60 6.5 60H57.5C58.8807 60 60 58.8807 60 57.5V44.5C60 43.1193 58.8807 42 57.5 42H6.5C5.11929 42 4 43.1193 4 44.5Z" fill="#8E8E8E"/>
<path opacity="0.5" d="M40 47L44 53" stroke="black" stroke-width="3" stroke-linecap="round"/>
<path opacity="0.5" d="M46 47L50 53" stroke="black" stroke-width="3" stroke-linecap="round"/>
<path opacity="0.5" d="M52 47L56 53" stroke="black" stroke-width="3" stroke-linecap="round"/>
<path opacity="0.5" d="M34 47L38 53" stroke="black" stroke-width="3" stroke-linecap="round"/>
<path opacity="0.2" d="M23.5 50C22.1193 50 21 48.8807 21 47.5C21 46.1193 22.1193 45 23.5 45C24.8807 45 26 46.1193 26 47.5C26 48.8807 24.8807 50 23.5 50Z" fill="black"/>
<path opacity="0.2" d="M16.5 50C15.1193 50 14 48.8807 14 47.5C14 46.1193 15.1193 45 16.5 45C17.8807 45 19 46.1193 19 47.5C19 48.8807 17.8807 50 16.5 50Z" fill="black"/>
<path opacity="0.2" d="M9.5 50C8.11929 50 7 48.8807 7 47.5C7 46.1193 8.11929 45 9.5 45C10.8807 45 12 46.1193 12 47.5C12 48.8807 10.8807 50 9.5 50Z" fill="black"/>
<path d="M23.5 49C22.1193 49 21 47.8807 21 46.5C21 45.1193 22.1193 44 23.5 44C24.8807 44 26 45.1193 26 46.5C26 47.8807 24.8807 49 23.5 49Z" fill="#76FF03"/>
<path d="M16.5 49C15.1193 49 14 47.8807 14 46.5C14 45.1193 15.1193 44 16.5 44C17.8807 44 19 45.1193 19 46.5C19 47.8807 17.8807 49 16.5 49Z" fill="#FFFF00"/>
<path d="M9.5 49C8.11929 49 7 47.8807 7 46.5C7 45.1193 8.11929 44 9.5 44C10.8807 44 12 45.1193 12 46.5C12 47.8807 10.8807 49 9.5 49Z" fill="#FFCD40"/>
<path opacity="0.2" d="M4 26.5V39.5C4 40.8807 5.11929 42 6.5 42H57.5C58.8807 42 60 40.8807 60 39.5V26.5C60 25.1193 58.8807 24 57.5 24H6.5C5.11929 24 4 25.1193 4 26.5Z" fill="black"/>
<path d="M4 25.5V38.5C4 39.8807 5.11929 41 6.5 41H57.5C58.8807 41 60 39.8807 60 38.5V25.5C60 24.1193 58.8807 23 57.5 23H6.5C5.11929 23 4 24.1193 4 25.5Z" fill="#8E8E8E"/>
<path opacity="0.5" d="M40 29L44 35" stroke="black" stroke-width="3" stroke-linecap="round"/>
<path opacity="0.5" d="M46 29L50 35" stroke="black" stroke-width="3" stroke-linecap="round"/>
<path opacity="0.5" d="M52 29L56 35" stroke="black" stroke-width="3" stroke-linecap="round"/>
<path opacity="0.5" d="M34 29L38 35" stroke="black" stroke-width="3" stroke-linecap="round"/>
<path opacity="0.2" d="M16.5 32C15.1193 32 14 30.8807 14 29.5C14 28.1193 15.1193 27 16.5 27C17.8807 27 19 28.1193 19 29.5C19 30.8807 17.8807 32 16.5 32Z" fill="black"/>
<path opacity="0.2" d="M9.5 32C8.11929 32 7 30.8807 7 29.5C7 28.1193 8.11929 27 9.5 27C10.8807 27 12 28.1193 12 29.5C12 30.8807 10.8807 32 9.5 32Z" fill="black"/>
<path d="M16.5 31C15.1193 31 14 29.8807 14 28.5C14 27.1193 15.1193 26 16.5 26C17.8807 26 19 27.1193 19 28.5C19 29.8807 17.8807 31 16.5 31Z" fill="#FFFF00"/>
<path d="M9.5 31C8.11929 31 7 29.8807 7 28.5C7 27.1193 8.11929 26 9.5 26C10.8807 26 12 27.1193 12 28.5C12 29.8807 10.8807 31 9.5 31Z" fill="#FFCD40"/>
<path opacity="0.2" d="M4 8.5V21.5C4 22.8807 5.11929 24 6.5 24H57.5C58.8807 24 60 22.8807 60 21.5V8.5C60 7.11929 58.8807 6 57.5 6H6.5C5.11929 6 4 7.11929 4 8.5Z" fill="black"/>
<path d="M4 6.5V19.5C4 20.8807 5.11929 22 6.5 22H57.5C58.8807 22 60 20.8807 60 19.5V6.5C60 5.11929 58.8807 4 57.5 4H6.5C5.11929 4 4 5.11929 4 6.5Z" fill="#8E8E8E"/>
<path opacity="0.5" d="M40 11L44 17" stroke="black" stroke-width="3" stroke-linecap="round"/>
<path opacity="0.5" d="M46 11L50 17" stroke="black" stroke-width="3" stroke-linecap="round"/>
<path opacity="0.5" d="M52 11L56 17" stroke="black" stroke-width="3" stroke-linecap="round"/>
<path opacity="0.5" d="M34 11L38 17" stroke="black" stroke-width="3" stroke-linecap="round"/>
<path opacity="0.2" d="M9.5 14C8.11929 14 7 12.8807 7 11.5C7 10.1193 8.11929 9 9.5 9C10.8807 9 12 10.1193 12 11.5C12 12.8807 10.8807 14 9.5 14Z" fill="black"/>
<path d="M9.5 13C8.11929 13 7 11.8807 7 10.5C7 9.11929 8.11929 8 9.5 8C10.8807 8 12 9.11929 12 10.5C12 11.8807 10.8807 13 9.5 13Z" fill="#FFCD40"/>
<path opacity="0.2" d="M57.5 5C58.885 5 60 6.115 60 7.5V8.5C60 7.115 58.885 6 57.5 6H6.5C5.115 6 4 7.115 4 8.5V7.5C4 6.115 5.115 5 6.5 5H57.5Z" fill="white"/>
</svg>
