<svg width="64" height="64" viewBox="0 0 64 64" fill="none" xmlns="http://www.w3.org/2000/svg">
<path opacity="0.2" d="M4 14V57.096C4 58.706 5.24775 60 6.8 60H57.2014C58.7526 60 60 58.7062 60 57.096V14H4Z" fill="black"/>
<path opacity="0.2" d="M52.2671 42.1H11.7331C10.5551 42.1 9.6001 43.1396 9.6001 44.422V45.378C9.6001 46.6604 10.5551 47.7 11.7331 47.7H52.2671C53.4451 47.7 54.4001 46.6604 54.4001 45.378V44.422C54.4001 43.1396 53.4451 42.1 52.2671 42.1Z" fill="black"/>
<path d="M4 10V56.8434C4 58.5934 5.24775 60 6.8 60H57.2014C58.7526 60 60 58.5937 60 56.8434V10H4Z" fill="#C7C7C7"/>
<path d="M6.8 4C5.24768 4 4 5.23819 4 6.77708V10H60V6.77708C60 5.23819 58.7526 4 57.2 4H6.8Z" fill="#5A6367"/>
<path opacity="0.1" d="M6.80078 4C5.24846 4 4 5.23845 4 6.77734V7.77734C4 6.23845 5.24846 5 6.80078 5H57.1992C58.7518 5 60 6.23845 60 7.77734V6.77734C60 5.23845 58.7518 4 57.1992 4H6.80078Z" fill="white"/>
<path d="M18 41.5C23.799 41.5 28.5 36.799 28.5 31C28.5 25.201 23.799 20.5 18 20.5C12.201 20.5 7.5 25.201 7.5 31C7.5 36.799 12.201 41.5 18 41.5Z" fill="#4CAF50"/>
<path d="M23.3 26.3L16.5 33.1L13.7 30.3L12.3 31.7L16.5 35.9L24.7001 27.7L23.3 26.3Z" fill="#C7C7C7"/>
<path fill-rule="evenodd" clip-rule="evenodd" d="M56 31C56 36.523 51.523 41 46 41C40.477 41 36 36.523 36 31C36 25.477 40.477 21 46 21C51.523 21 56 25.477 56 31ZM50.95 26.05C51.1375 26.2375 51.2428 26.4918 51.2428 26.757C51.2428 27.0222 51.1375 27.2765 50.95 27.464L47.414 31L50.95 34.536C51.1322 34.7246 51.233 34.9772 51.2307 35.2394C51.2284 35.5016 51.1232 35.7524 50.9378 35.9378C50.7524 36.1232 50.5016 36.2284 50.2394 36.2307C49.9772 36.233 49.7246 36.1322 49.536 35.95L46 32.414L42.464 35.95C42.3718 36.0455 42.2614 36.1217 42.1394 36.1741C42.0174 36.2265 41.8862 36.2541 41.7534 36.2552C41.6206 36.2564 41.4889 36.2311 41.366 36.1808C41.2431 36.1305 41.1315 36.0563 41.0376 35.9624C40.9437 35.8685 40.8695 35.7568 40.8192 35.634C40.7689 35.5111 40.7436 35.3794 40.7447 35.2466C40.7459 35.1138 40.7735 34.9826 40.8259 34.8606C40.8783 34.7386 40.9545 34.6282 41.05 34.536L44.586 31L41.05 27.464C40.9545 27.3718 40.8783 27.2614 40.8259 27.1394C40.7735 27.0174 40.7459 26.8862 40.7447 26.7534C40.7436 26.6206 40.7689 26.4889 40.8192 26.366C40.8695 26.2431 40.9437 26.1315 41.0376 26.0376C41.1315 25.9437 41.2431 25.8695 41.366 25.8192C41.4889 25.7689 41.6206 25.7436 41.7534 25.7447C41.8862 25.7459 42.0174 25.7735 42.1394 25.8259C42.2614 25.8783 42.3718 25.9545 42.464 26.05L46 29.586L49.536 26.05C49.7235 25.8625 49.9778 25.7572 50.243 25.7572C50.5082 25.7572 50.7625 25.8625 50.95 26.05Z" fill="#FF6363"/>
<path d="M30 10L30.0781 60H34V10H30Z" fill="#5A6367"/>
</svg>
