<svg width="64" height="64" viewBox="0 0 64 64" fill="none" xmlns="http://www.w3.org/2000/svg">
<path opacity="0.2" d="M4 14V57.096C4 58.706 5.24775 60 6.8 60H57.2014C58.7526 60 60 58.7062 60 57.096V14H4Z" fill="black"/>
<path opacity="0.2" d="M52.2671 42.1H11.7331C10.5551 42.1 9.6001 43.1396 9.6001 44.422V45.378C9.6001 46.6604 10.5551 47.7 11.7331 47.7H52.2671C53.4451 47.7 54.4001 46.6604 54.4001 45.378V44.422C54.4001 43.1396 53.4451 42.1 52.2671 42.1Z" fill="black"/>
<path d="M4 10V56.8434C4 58.5934 5.24775 60 6.8 60H57.2014C58.7526 60 60 58.5937 60 56.8434V10H4Z" fill="#C7C7C7"/>
<path d="M6.8 4C5.24768 4 4 5.23819 4 6.77708V10H60V6.77708C60 5.23819 58.7526 4 57.2 4H6.8Z" fill="#5A6367"/>
<path opacity="0.1" d="M6.80078 4C5.24846 4 4 5.23845 4 6.77734V7.77734C4 6.23845 5.24846 5 6.80078 5H57.1992C58.7518 5 60 6.23845 60 7.77734V6.77734C60 5.23845 58.7518 4 57.1992 4H6.80078Z" fill="white"/>
<path d="M18 42.5C23.799 42.5 28.5 37.799 28.5 32C28.5 26.201 23.799 21.5 18 21.5C12.201 21.5 7.5 26.201 7.5 32C7.5 37.799 12.201 42.5 18 42.5Z" fill="#4CAF50"/>
<path d="M23.3 27.3L16.5 34.1L13.7 31.3L12.3 32.7L16.5 36.9L24.7001 28.7L23.3 27.3Z" fill="#C7C7C7"/>
<path fill-rule="evenodd" clip-rule="evenodd" d="M56 32C56 37.523 51.523 42 46 42C40.477 42 36 37.523 36 32C36 26.477 40.477 22 46 22C51.523 22 56 26.477 56 32ZM50.95 27.05C51.1375 27.2375 51.2428 27.4918 51.2428 27.757C51.2428 28.0222 51.1375 28.2765 50.95 28.464L47.414 32L50.95 35.536C51.1322 35.7246 51.233 35.9772 51.2307 36.2394C51.2284 36.5016 51.1232 36.7524 50.9378 36.9378C50.7524 37.1232 50.5016 37.2284 50.2394 37.2307C49.9772 37.233 49.7246 37.1322 49.536 36.95L46 33.414L42.464 36.95C42.3718 37.0455 42.2614 37.1217 42.1394 37.1741C42.0174 37.2265 41.8862 37.2541 41.7534 37.2552C41.6206 37.2564 41.4889 37.2311 41.366 37.1808C41.2431 37.1305 41.1315 37.0563 41.0376 36.9624C40.9437 36.8685 40.8695 36.7568 40.8192 36.634C40.7689 36.5111 40.7436 36.3794 40.7447 36.2466C40.7459 36.1138 40.7735 35.9826 40.8259 35.8606C40.8783 35.7386 40.9545 35.6282 41.05 35.536L44.586 32L41.05 28.464C40.9545 28.3718 40.8783 28.2614 40.8259 28.1394C40.7735 28.0174 40.7459 27.8862 40.7447 27.7534C40.7436 27.6206 40.7689 27.4889 40.8192 27.366C40.8695 27.2431 40.9437 27.1315 41.0376 27.0376C41.1315 26.9437 41.2431 26.8695 41.366 26.8192C41.4889 26.7689 41.6206 26.7436 41.7534 26.7447C41.8862 26.7459 42.0174 26.7735 42.1394 26.8259C42.2614 26.8783 42.3718 26.9545 42.464 27.05L46 30.586L49.536 27.05C49.7235 26.8625 49.9778 26.7572 50.243 26.7572C50.5082 26.7572 50.7625 26.8625 50.95 27.05Z" fill="#FF6363"/>
<path d="M32 10L32.0195 60H33V10H32Z" fill="#5A6367" fill-opacity="0.5"/>
</svg>
