<?xml version="1.0" encoding="iso-8859-1"?>
<!-- Uploaded to: SVG Repo, www.svgrepo.com, Generator: SVG Repo Mixer Tools -->
<svg height="800px" width="800px" version="1.1" id="Layer_1" xmlns="http://www.w3.org/2000/svg" xmlns:xlink="http://www.w3.org/1999/xlink" 
	 viewBox="0 0 480 480" xml:space="preserve">
<path style="fill:#F2F2F2;" d="M24,308h72l194.536-205.888l-11.304-11.304c-3.952-3.952-9.688-5.552-15.12-4.224l-87.64,21.52
	c-14.192,3.488-27.16,10.792-37.496,15.128L8,260v32C8,300.84,15.16,308,24,308z"/>
<path style="fill:#F7F7F7;" d="M24,308h72l194.536-205.888l-11.304-11.304c-3.952-3.952-9.688-5.552-15.12-4.224l-87.64,21.52
	c-14.192,3.488-27.16,10.792-37.496,15.128L8,260v32C8,300.84,15.16,308,24,308z"/>
<path style="fill:#E67F33;" d="M56,428h368c26.512,0,48-21.488,48-48v-24c0-26.512-21.488-48-48-48H56c-26.512,0-48,21.488-48,48v24
	C8,406.512,29.488,428,56,428z"/>
<g>
	<circle style="fill:#FFFCF7;" cx="68" cy="368" r="28"/>
	<circle style="fill:#FFFCF7;" cx="412" cy="368" r="20"/>
</g>
<g>
	<g>
		<path id="SVGCleanerId_0" style="fill:#F2F2F2;" d="M472,300V139.84c0-10.536-1.04-21.048-3.104-31.376L464,84h-48l-16,40v48h4
			c15.464,0,28,12.536,28,28l0,0c0,15.464-12.536,28-28,28h-4c-8.84,0-16,7.16-16,16v16l16,16l-16,16v16h56l16,8l0,0
			C464.84,316,472,308.84,472,300z"/>
	</g>
	<g>
		<path id="SVGCleanerId_0_1_" style="fill:#F2F2F2;" d="M472,300V139.84c0-10.536-1.04-21.048-3.104-31.376L464,84h-48l-16,40v48h4
			c15.464,0,28,12.536,28,28l0,0c0,15.464-12.536,28-28,28h-4c-8.84,0-16,7.16-16,16v16l16,16l-16,16v16h56l16,8l0,0
			C464.84,316,472,308.84,472,300z"/>
	</g>
</g>
<g>
	<path id="SVGCleanerId_0_2_" style="fill:#F7F7F7;" d="M472,300V139.84c0-10.536-1.04-21.048-3.104-31.376L464,84h-48l-16,40v48h4
		c15.464,0,28,12.536,28,28l0,0c0,15.464-12.536,28-28,28h-4c-8.84,0-16,7.16-16,16v16l16,16l-16,16v16h56l16,8l0,0
		C464.84,316,472,308.84,472,300z"/>
</g>
<polygon style="fill:#F2F2F2;" points="376,308 328,276 128,276 96,308 "/>
<g>
	<path style="fill:#132C47;" d="M115.8,207.4c2.048,0,4.096-0.784,5.656-2.344l39.6-39.6c3.128-3.128,3.128-8.184,0-11.312
		s-8.184-3.128-11.312,0l-39.6,39.6c-3.128,3.128-3.128,8.184,0,11.312C111.704,206.616,113.752,207.4,115.8,207.4z"/>
	<path style="fill:#132C47;" d="M68,332c-19.848,0-36,16.152-36,36s16.152,36,36,36s36-16.152,36-36S87.848,332,68,332z M68,388
		c-11.024,0-20-8.968-20-20s8.976-20,20-20s20,8.968,20,20S79.024,388,68,388z"/>
	<path style="fill:#132C47;" d="M412,340c-15.44,0-28,12.56-28,28s12.56,28,28,28s28-12.56,28-28S427.44,340,412,340z M412,380
		c-6.616,0-12-5.384-12-12s5.384-12,12-12s12,5.384,12,12S418.616,380,412,380z"/>
	<path style="fill:#132C47;" d="M304,356h-48c-4.416,0-8,3.576-8,8s3.584,8,8,8h48c4.416,0,8-3.576,8-8S308.416,356,304,356z"/>
	<path style="fill:#132C47;" d="M224,356h-48c-4.416,0-8,3.576-8,8s3.584,8,8,8h48c4.416,0,8-3.576,8-8S228.416,356,224,356z"/>
	<path style="fill:#132C47;" d="M480,300V139.84c0-11.04-1.096-22.128-3.264-32.952l-4.896-24.464C471.096,78.688,467.816,76,464,76
		h-48c-3.272,0-6.208,1.992-7.432,5.032l-16,40C392.192,121.976,392,122.984,392,124v48c0,4.424,3.584,8,8,8h4
		c11.024,0,20,8.968,20,20s-8.976,20-20,20h-4c-13.232,0-24,10.768-24,24v16c0,2.128,0.84,4.16,2.344,5.656L388.688,276
		l-10.344,10.344C376.84,287.84,376,289.872,376,292v6.384l-43.56-29.04c-1.312-0.872-2.864-1.344-4.44-1.344H144.8l151.552-160.392
		c2.976-3.152,2.904-8.088-0.16-11.152L284.88,85.144c-5.896-5.888-14.592-8.328-22.68-6.328l-87.64,21.52
		c-10.936,2.68-20.84,7.304-29.576,11.392c-3.216,1.504-6.264,2.928-9.104,4.128c-1.008,0.424-1.928,1.048-2.68,1.84L2.224,254.472
		C0.8,255.952,0,257.936,0,260v32c0,11.104,7.616,20.376,17.864,23.104C6.904,325.336,0,339.864,0,356v24c0,30.872,25.12,56,56,56
		h368c30.88,0,56-25.128,56-56v-24c0-13.288-4.672-25.488-12.432-35.104C474.944,316.8,480,309.016,480,300z M392,295.312
		l13.656-13.656c3.128-3.128,3.128-8.184,0-11.312L392,256.688V244c0-4.416,3.592-8,8-8h4c19.848,0,36-16.152,36-36
		c0-18.496-14.024-33.784-32-35.784v-38.68L421.416,92h36.024l3.608,18.032c1.96,9.792,2.952,19.816,2.952,29.808V300
		c0,3.872-2.768,7.112-6.424,7.84l-14-7c-1.104-0.552-2.336-0.84-3.576-0.84h-16h-32V295.312z M349.576,300H115.312l16-16h194.264
		L349.576,300z M24,300c-4.408,0-8-3.584-8-8v-28.792l127.624-133.272c2.568-1.12,5.288-2.384,8.136-3.712
		c8.072-3.776,17.216-8.048,26.616-10.36l87.648-21.512c2.712-0.64,5.592,0.152,7.552,2.112l5.808,5.816L92.552,300H56H24z M464,380
		c0,22.056-17.944,40-40,40H56c-22.056,0-40-17.944-40-40v-24c0-22.056,17.944-40,40-40h40h280h8h40c22.056,0,40,17.944,40,40V380z"
		/>
	<path style="fill:#132C47;" d="M448,148v-16c0-4.424-3.584-8-8-8s-8,3.576-8,8v16c0,4.424,3.584,8,8,8S448,152.424,448,148z"/>
	<path style="fill:#132C47;" d="M328,76h8v8c0,4.424,3.584,8,8,8s8-3.576,8-8v-8h8c4.416,0,8-3.576,8-8s-3.584-8-8-8h-8v-8
		c0-4.424-3.584-8-8-8s-8,3.576-8,8v8h-8c-4.416,0-8,3.576-8,8S323.584,76,328,76z"/>
</g>
</svg>