<?xml version="1.0" encoding="iso-8859-1"?>
<!-- Uploaded to: SVG Repo, www.svgrepo.com, Generator: SVG Repo Mixer Tools -->
<svg height="800px" width="800px" version="1.1" id="Layer_1" xmlns="http://www.w3.org/2000/svg" xmlns:xlink="http://www.w3.org/1999/xlink" 
	 viewBox="0 0 464 464" xml:space="preserve">
<path style="fill:#EFE2D9;" d="M464,352V135.84c0-10.536-1.04-21.048-3.104-31.376L456,80h-48l-16,40v48h4c15.464,0,28,12.536,28,28
	l0,0c0,15.464-12.536,28-28,28h-4c-8.84,0-16,7.16-16,16v16l16,16l-16,16v16l72,48H464z"/>
<path style="fill:#CE9F7D;" d="M432,152c-4.416,0-8-3.576-8-8v-16c0-4.424,3.584-8,8-8s8,3.576,8,8v16
	C440,148.424,436.416,152,432,152z"/>
<path style="fill:#F7F7F7;" d="M0.664,344.664L88,304L282.536,98.112l-11.304-11.304c-3.952-3.952-9.688-5.552-15.12-4.224
	l-87.64,21.52c-14.192,3.488-27.16,10.792-37.496,15.128L0,256L0.664,344.664z"/>
<path style="fill:#EFE2D9;" d="M0.664,344.664L88,304L282.536,98.112l-11.304-11.304c-3.952-3.952-9.688-5.552-15.12-4.224
	l-87.64,21.52c-14.192,3.488-27.16,10.792-37.496,15.128L0,256L0.664,344.664z"/>
<path style="fill:#CE9F7D;" d="M107.8,203.4c-2.048,0-4.096-0.784-5.656-2.344c-3.128-3.128-3.128-8.184,0-11.312l39.6-39.6
	c3.128-3.128,8.184-3.128,11.312,0s3.128,8.184,0,11.312l-39.6,39.6C111.888,202.616,109.84,203.4,107.8,203.4z"/>
<path style="fill:#E67F33;" d="M48,424h368c26.512,0,48-21.488,48-48v-24c0-26.512-21.488-48-48-48H48c-26.512,0-48,21.488-48,48v24
	C0,402.512,21.488,424,48,424z"/>
<g>
	<circle style="fill:#FAE5D6;" cx="60" cy="364" r="28"/>
	<circle style="fill:#FAE5D6;" cx="404" cy="364" r="20"/>
</g>
<g>
	<path style="fill:#73390E;" d="M296,368h-48c-4.416,0-8-3.576-8-8s3.584-8,8-8h48c4.416,0,8,3.576,8,8S300.416,368,296,368z"/>
	<path style="fill:#73390E;" d="M216,368h-48c-4.416,0-8-3.576-8-8s3.584-8,8-8h48c4.416,0,8,3.576,8,8S220.416,368,216,368z"/>
</g>
<polygon style="fill:#E6D4C6;" points="368,304 320,272 120,272 88,304 "/>
<path style="fill:#CE9F7D;" d="M352,56h-8v-8c0-4.424-3.584-8-8-8s-8,3.576-8,8v8h-8c-4.416,0-8,3.576-8,8s3.584,8,8,8h8v8
	c0,4.424,3.584,8,8,8s8-3.576,8-8v-8h8c4.416,0,8-3.576,8-8S356.416,56,352,56z"/>
</svg>